# xmcd
#
# Track frame offsets:
#	150
#	38218
#	58259
#	74621
#	100508
#	120018
#	137242
#	153653
#	169931
#	197292
#	216642
#	231340
#	257560
#	287718
#	315578
#	333791
#
# Disc length: 4738 seconds
#
# Revision: 0
# Processed by: cddbd v1.5.1PL0 Copyright (c) Steve Scherf et al.
# Submitted via: audiograbber 1.82.01
#
DISCID=ea128010
DTITLE=Diverse Interpreten - Electronic Lovesongs
DYEAR=2004
DGENRE=Electronic
TTITLE0=System F ft DJ Lawyer - Soul On Soul (Elektrochemie)
TTITLE1=Swayzak - I Dance Alone
TTITLE2=Slam - Lifetimes
TTITLE3=Codec and Flexor - Time has changed (vitalic remix)
TTITLE4=Justice Vs Simian - Never Be Alone (Exclusive)
TTITLE5=Milk And Sugar - Love Is In The Air
TTITLE6=Lexy and K-Paul - Love Me Babe (Short)
TTITLE7=Echopark - Suicide Commando (Radio)
TTITLE8=Divine - Native Love (Step By Step)
TTITLE9=Off - Time Operator
TTITLE10=Silicone Soul - Right On! (Radio Edit)
TTITLE11=Kissogram vs. Woody - If I had known this before
TTITLE12=Junior Jack Ft Robert Smith - Da Hype
TTITLE13=Spiller Revisits - Spillerose
TTITLE14=Mathias Schaffhduser Feat. Rob - Hey Little Girl
TTITLE15=2Raumwohnung - Weil Es Liebe Ist
EXTD=
EXTT0=
EXTT1=
EXTT2=
EXTT3=
EXTT4=
EXTT5=
EXTT6=
EXTT7=
EXTT8=
EXTT9=
EXTT10=
EXTT11=
EXTT12=
EXTT13=
EXTT14=
EXTT15=
PLAYORDER=
